<?xml version="1.0" encoding="UTF-8"?>
<svg id="Layer_1" data-name="Layer 1" xmlns="http://www.w3.org/2000/svg" xmlns:xlink="http://www.w3.org/1999/xlink" viewBox="0 0 51.83 56.85">
  <defs>
    <style>
      .cls-1 {
        fill: url(#linear-gradient-2);
      }

      .cls-1, .cls-2, .cls-3 {
        fill-rule: evenodd;
      }

      .cls-2 {
        fill: none;
      }

      .cls-4 {
        fill: url(#linear-gradient);
      }

      .cls-3 {
        fill: url(#linear-gradient-3);
      }
    </style>
    <linearGradient id="linear-gradient" x1="0" y1="28.42" x2="51.83" y2="28.42" gradientUnits="userSpaceOnUse">
      <stop offset="0" stop-color="#0c6b37"/>
      <stop offset="1" stop-color="#a97c50"/>
    </linearGradient>
    <linearGradient id="linear-gradient-2" x1="19.63" y1="31.86" x2="25.4" y2="31.86" xlink:href="#linear-gradient"/>
    <linearGradient id="linear-gradient-3" x1="9.68" y1="28.8" x2="35.35" y2="28.8" xlink:href="#linear-gradient"/>
  </defs>
  <path class="cls-4" d="m46.63,40.94l-1.78,9.57c-.11.53-.34.91-.68,1.14s-.72.38-1.22.38H11.96v-.68l3.08-3.34,4.82-5.89,4.56-5.51c-.57.27-1.22.38-1.9.38-2.77,0-5.05-2.2-5.13-5.01l-6.65,8.09L0,53.16v3.68h51.83v-15.91h-5.2ZM10.4,6.3c.11-.49.34-.84.68-1.1.3-.23.72-.38,1.14-.38h27.27v.68l-3.04,3.27-7.97,9.72-1.78,2.16-.8.95-4.29,5.24c.3-.08.61-.11.91-.11,2.85,0,5.13,2.28,5.13,5.13,0,.34-.04.65-.11.95l7.1-8.62L51.61,3.53V0H3.46v14.77h5.2l1.75-8.47Zm12.11,28.44c.53,0,.99-.42.99-.95v-.99h.95c.53,0,.95-.42.95-.95s-.42-.95-.95-.95h-.95v-.99c0-.53-.46-.95-.99-.95s-.95.42-.95.95v.99h-.95c-.53,0-.99.42-.99.95s.46.95.99.95h.95v.99c0,.53.42.95.95.95Z"/>
  <g>
    <path class="cls-1" d="m25.4,31.86c0,.53-.42.95-.95.95h-.95v.99c0,.53-.46.95-.99.95s-.95-.42-.95-.95v-.99h-.95c-.53,0-.99-.42-.99-.95s.46-.95.99-.95h.95v-.99c0-.53.42-.95.95-.95s.99.42.99.95v.99h.95c.53,0,.95.42.95.95Z"/>
    <path class="cls-3" d="m34.63,24.19c-.19-.42-.46-.8-.76-1.1-1.1-1.06-2.66-1.37-5.24-1.44v-.11c0-1.14,0-2.13-.11-2.89,0-.04,0-.11-.04-.15-.11-.76-.34-1.41-.87-1.97-.61-.57-1.33-.8-2.13-.91-.76-.11-1.75-.11-2.89-.11h-.11c-1.18,0-2.13,0-2.89.11-.8.11-1.56.34-2.13.91-.57.61-.84,1.33-.95,2.13-.08.76-.08,1.75-.08,2.89v.11c-2.62.08-4.18.38-5.24,1.44-1.52,1.52-1.52,3.95-1.52,8.77,0,4.29,0,6.65,1.06,8.2.11.19.27.38.46.57,1.52,1.48,3.87,1.48,8.66,1.48h5.24c4.82,0,7.25,0,8.77-1.48,1.48-1.52,1.48-3.91,1.48-8.77,0-3.8,0-6.11-.72-7.67Zm-16.18-5.28c.08-.61.19-.84.38-1.03.15-.15.42-.3.99-.38.65-.08,1.48-.08,2.7-.08s2.09,0,2.7.08c.61.08.84.23,1.03.38.15.19.3.42.38,1.03.04.46.08.99.08,1.75v.95h-8.35c0-1.25,0-2.09.11-2.7Zm5.96,17.7c-.57.27-1.22.38-1.9.38-2.77,0-5.05-2.2-5.13-5.01v-.11c0-2.54,1.82-4.59,4.22-5.01.3-.08.61-.11.91-.11,2.85,0,5.13,2.28,5.13,5.13,0,.34-.04.65-.11.95-.3,1.75-1.52,3.19-3.11,3.8Z"/>
    <path class="cls-2" d="m22.52,26.73c-.3,0-.61.04-.91.11l-4.22,5.13c.08,2.81,2.35,5.01,5.13,5.01.68,0,1.33-.11,1.9-.38l3.11-3.8c.08-.3.11-.61.11-.95,0-2.85-2.28-5.13-5.13-5.13Zm1.94,6.08h-.95v.99c0,.53-.46.95-.99.95s-.95-.42-.95-.95v-.99h-.95c-.53,0-.99-.42-.99-.95s.46-.95.99-.95h.95v-.99c0-.53.42-.95.95-.95s.99.42.99.95v.99h.95c.53,0,.95.42.95.95s-.42.95-.95.95Z"/>
  </g>
</svg>