<?xml version="1.0" encoding="UTF-8"?>
<svg id="Layer_1" data-name="Layer 1" xmlns="http://www.w3.org/2000/svg" xmlns:xlink="http://www.w3.org/1999/xlink" viewBox="0 0 735.54 87.2">
  <defs>
    <style>
      .cls-1 {
        fill: url(#linear-gradient-2);
      }

      .cls-2 {
        fill: url(#linear-gradient-17);
      }

      .cls-3 {
        fill: url(#linear-gradient-15);
      }

      .cls-4 {
        fill: url(#linear-gradient-18);
      }

      .cls-5 {
        fill: url(#linear-gradient-28);
      }

      .cls-6 {
        fill: url(#linear-gradient-14);
      }

      .cls-7 {
        fill: url(#linear-gradient-36);
      }

      .cls-8 {
        fill: url(#linear-gradient-20);
      }

      .cls-9 {
        fill: url(#linear-gradient-6);
      }

      .cls-10 {
        fill: url(#linear-gradient-35);
      }

      .cls-11 {
        fill: url(#linear-gradient-32);
      }

      .cls-12 {
        fill: url(#linear-gradient-11);
      }

      .cls-13 {
        fill: url(#linear-gradient-25);
      }

      .cls-13, .cls-14, .cls-15 {
        fill-rule: evenodd;
      }

      .cls-16 {
        fill: url(#linear-gradient-10);
      }

      .cls-14 {
        fill: url(#linear-gradient-26);
      }

      .cls-17 {
        fill: url(#linear-gradient-37);
      }

      .cls-18 {
        fill: url(#linear-gradient-16);
      }

      .cls-19 {
        fill: url(#linear-gradient-31);
      }

      .cls-20 {
        fill: url(#linear-gradient-21);
      }

      .cls-21 {
        fill: url(#linear-gradient-5);
      }

      .cls-22 {
        opacity: .1;
      }

      .cls-15 {
        fill: none;
      }

      .cls-23 {
        fill: url(#linear-gradient-34);
      }

      .cls-24 {
        fill: url(#linear-gradient-7);
      }

      .cls-25 {
        fill: url(#linear-gradient-24);
      }

      .cls-26 {
        fill: url(#linear-gradient-9);
      }

      .cls-27 {
        fill: url(#linear-gradient-22);
      }

      .cls-28 {
        fill: url(#linear-gradient-3);
      }

      .cls-29 {
        fill: url(#linear-gradient);
      }

      .cls-30 {
        fill: url(#linear-gradient-27);
      }

      .cls-31 {
        fill: url(#linear-gradient-33);
      }

      .cls-32 {
        fill: url(#linear-gradient-38);
      }

      .cls-33 {
        fill: url(#linear-gradient-29);
      }

      .cls-34 {
        fill: url(#linear-gradient-30);
      }

      .cls-35 {
        fill: url(#linear-gradient-23);
      }

      .cls-36 {
        fill: url(#linear-gradient-19);
      }

      .cls-37 {
        fill: url(#linear-gradient-4);
      }

      .cls-38 {
        fill: url(#linear-gradient-8);
      }

      .cls-39 {
        fill: url(#linear-gradient-12);
      }

      .cls-40 {
        fill: url(#linear-gradient-13);
      }
    </style>
    <linearGradient id="linear-gradient" x1="648.8" y1="98.61" x2="711.01" y2="98.61" gradientTransform="translate(101.93 29.46) rotate(-1.88) scale(.87 .2) skewX(-2.21)" gradientUnits="userSpaceOnUse">
      <stop offset="0" stop-color="#0c6b37"/>
      <stop offset="1" stop-color="#123f1e"/>
    </linearGradient>
    <linearGradient id="linear-gradient-2" x1="674.57" y1="25.37" x2="676.23" y2="25.37" gradientTransform="matrix(1,0,0,1,0,0)" xlink:href="#linear-gradient"/>
    <linearGradient id="linear-gradient-3" x1="676.12" y1="25.64" x2="677.62" y2="25.64" gradientTransform="matrix(1,0,0,1,0,0)" xlink:href="#linear-gradient"/>
    <linearGradient id="linear-gradient-4" x1="677.96" y1="25.65" x2="679.27" y2="25.65" gradientTransform="matrix(1,0,0,1,0,0)" xlink:href="#linear-gradient"/>
    <linearGradient id="linear-gradient-5" x1="679.7" y1="25.62" x2="680.47" y2="25.62" gradientTransform="matrix(1,0,0,1,0,0)" xlink:href="#linear-gradient"/>
    <linearGradient id="linear-gradient-6" x1="681.43" y1="25.37" x2="683.02" y2="25.37" gradientTransform="matrix(1,0,0,1,0,0)" xlink:href="#linear-gradient"/>
    <linearGradient id="linear-gradient-7" x1="683.38" y1="25.63" x2="684.73" y2="25.63" gradientTransform="matrix(1,0,0,1,0,0)" xlink:href="#linear-gradient"/>
    <linearGradient id="linear-gradient-8" x1="684.96" y1="25.64" x2="686.18" y2="25.64" gradientTransform="matrix(1,0,0,1,0,0)" xlink:href="#linear-gradient"/>
    <linearGradient id="linear-gradient-9" x1="686.6" y1="25.32" x2="686.88" y2="25.32" gradientTransform="matrix(1,0,0,1,0,0)" xlink:href="#linear-gradient"/>
    <linearGradient id="linear-gradient-10" x1="687.18" y1="25.45" x2="688.09" y2="25.45" gradientTransform="matrix(1,0,0,1,0,0)" xlink:href="#linear-gradient"/>
    <linearGradient id="linear-gradient-11" x1="688.4" y1="25.32" x2="689.71" y2="25.32" gradientTransform="matrix(1,0,0,1,0,0)" xlink:href="#linear-gradient"/>
    <linearGradient id="linear-gradient-12" x1="689.98" y1="26.32" x2="690.48" y2="26.32" gradientTransform="matrix(1,0,0,1,0,0)" xlink:href="#linear-gradient"/>
    <linearGradient id="linear-gradient-13" x1="691.37" y1="25.37" x2="693.32" y2="25.37" gradientTransform="matrix(1,0,0,1,0,0)" xlink:href="#linear-gradient"/>
    <linearGradient id="linear-gradient-14" x1="693.67" y1="25.65" x2="694.98" y2="25.65" gradientTransform="matrix(1,0,0,1,0,0)" xlink:href="#linear-gradient"/>
    <linearGradient id="linear-gradient-15" x1="695.42" y1="25.62" x2="696.19" y2="25.62" gradientTransform="matrix(1,0,0,1,0,0)" xlink:href="#linear-gradient"/>
    <linearGradient id="linear-gradient-16" x1="697.15" y1="25.36" x2="698.46" y2="25.36" gradientTransform="matrix(1,0,0,1,0,0)" xlink:href="#linear-gradient"/>
    <linearGradient id="linear-gradient-17" x1="698.76" y1="25.62" x2="699.53" y2="25.62" gradientTransform="matrix(1,0,0,1,0,0)" xlink:href="#linear-gradient"/>
    <linearGradient id="linear-gradient-18" x1="699.79" y1="25.36" x2="700.13" y2="25.36" gradientTransform="matrix(1,0,0,1,0,0)" xlink:href="#linear-gradient"/>
    <linearGradient id="linear-gradient-19" x1="700.45" y1="25.64" x2="701.95" y2="25.64" gradientTransform="matrix(1,0,0,1,0,0)" xlink:href="#linear-gradient"/>
    <linearGradient id="linear-gradient-20" x1="702.29" y1="25.62" x2="703.06" y2="25.62" gradientTransform="matrix(1,0,0,1,0,0)" xlink:href="#linear-gradient"/>
    <linearGradient id="linear-gradient-21" x1="703.32" y1="25.36" x2="703.66" y2="25.36" gradientTransform="matrix(1,0,0,1,0,0)" xlink:href="#linear-gradient"/>
    <linearGradient id="linear-gradient-22" x1="703.92" y1="25.45" x2="704.83" y2="25.45" gradientTransform="matrix(1,0,0,1,0,0)" xlink:href="#linear-gradient"/>
    <linearGradient id="linear-gradient-23" x1="704.97" y1="25.95" x2="706.41" y2="25.95" gradientTransform="matrix(1,0,0,1,0,0)" xlink:href="#linear-gradient"/>
    <linearGradient id="linear-gradient-24" x1="680.04" y1="11.35" x2="700.74" y2="11.35" gradientUnits="userSpaceOnUse">
      <stop offset="0" stop-color="#0c6b37"/>
      <stop offset="1" stop-color="#a97c50"/>
    </linearGradient>
    <linearGradient id="linear-gradient-25" x1="687.88" y1="12.72" x2="690.19" y2="12.72" xlink:href="#linear-gradient-24"/>
    <linearGradient id="linear-gradient-26" x1="683.91" y1="11.5" x2="694.16" y2="11.5" xlink:href="#linear-gradient-24"/>
    <linearGradient id="linear-gradient-27" x1="645.4" y1="37.37" x2="650.91" y2="37.37" gradientTransform="matrix(1,0,0,1,0,0)" xlink:href="#linear-gradient"/>
    <linearGradient id="linear-gradient-28" x1="651.86" y1="37.37" x2="657.46" y2="37.37" gradientTransform="matrix(1,0,0,1,0,0)" xlink:href="#linear-gradient"/>
    <linearGradient id="linear-gradient-29" x1="658.41" y1="37.45" x2="665.41" y2="37.45" gradientTransform="matrix(1,0,0,1,0,0)" xlink:href="#linear-gradient"/>
    <linearGradient id="linear-gradient-30" x1="666.4" y1="37.38" x2="671.24" y2="37.38" gradientTransform="matrix(1,0,0,1,0,0)" xlink:href="#linear-gradient"/>
    <linearGradient id="linear-gradient-31" x1="678.32" y1="37.37" x2="683.56" y2="37.37" gradientTransform="matrix(1,0,0,1,0,0)" xlink:href="#linear-gradient"/>
    <linearGradient id="linear-gradient-32" x1="684.51" y1="37.37" x2="691.63" y2="37.37" gradientTransform="matrix(1,0,0,1,0,0)" xlink:href="#linear-gradient"/>
    <linearGradient id="linear-gradient-33" x1="692.11" y1="37.32" x2="698.95" y2="37.32" gradientTransform="matrix(1,0,0,1,0,0)" xlink:href="#linear-gradient"/>
    <linearGradient id="linear-gradient-34" x1="699.46" y1="37.37" x2="706.04" y2="37.37" gradientTransform="matrix(1,0,0,1,0,0)" xlink:href="#linear-gradient"/>
    <linearGradient id="linear-gradient-35" x1="706.49" y1="37.37" x2="715.03" y2="37.37" gradientTransform="matrix(1,0,0,1,0,0)" xlink:href="#linear-gradient"/>
    <linearGradient id="linear-gradient-36" x1="715.55" y1="37.32" x2="722.39" y2="37.32" gradientTransform="matrix(1,0,0,1,0,0)" xlink:href="#linear-gradient"/>
    <linearGradient id="linear-gradient-37" x1="722.83" y1="37.38" x2="728.62" y2="37.38" gradientTransform="matrix(1,0,0,1,0,0)" xlink:href="#linear-gradient"/>
    <linearGradient id="linear-gradient-38" x1="729.18" y1="37.37" x2="735.54" y2="37.37" gradientTransform="matrix(1,0,0,1,0,0)" xlink:href="#linear-gradient"/>
  </defs>
  <g class="cls-22">
    <path class="cls-29" d="m720.87,30.28s-40.84-2.59-40.85-2.59l-2.32-.14c1.2.88,3.49,2.86,3.58,2.86-2.64-.11-14.52-.54-14.52-.58l.11,2.66,5.59.03,20.28.28-3.67-2.85,31.79.33Z"/>
  </g>
  <g>
    <path class="cls-1" d="m675.24,26.32v-.81l-.67-1.1h.31l.3.53c.08.15.15.26.21.39h0c.06-.12.13-.25.22-.39l.31-.53h.31l-.72,1.1v.81h-.28Z"/>
    <path class="cls-28" d="m677.62,25.62c0,.51-.39.73-.76.73-.41,0-.74-.27-.74-.71,0-.46.34-.73.76-.73s.74.29.74.7Zm-1.22.02c0,.3.19.53.47.53s.47-.22.47-.53c0-.23-.13-.53-.46-.53s-.47.27-.47.53Z"/>
    <path class="cls-37" d="m679.25,25.95c0,.14,0,.27.01.37h-.25l-.02-.22h0c-.07.11-.24.26-.51.26-.24,0-.53-.12-.53-.6v-.8h.28v.76c0,.26.09.44.34.44.19,0,.32-.12.37-.23.02-.04.02-.08.02-.13v-.84h.28v1Z"/>
    <path class="cls-21" d="m679.71,25.38c0-.16,0-.3-.01-.43h.24v.27h.02c.07-.18.24-.3.42-.3.03,0,.05,0,.08,0v.24s-.06,0-.1,0c-.2,0-.34.13-.37.32,0,.03-.01.07-.01.12v.73h-.28v-.94Z"/>
    <path class="cls-9" d="m681.71,24.41v.8h1.03v-.8h.28v1.91h-.28v-.9h-1.03v.9h-.28v-1.91h.28Z"/>
    <path class="cls-24" d="m683.65,25.68c0,.34.25.48.52.48.2,0,.32-.03.43-.07l.05.18c-.1.04-.26.08-.51.08-.47,0-.75-.28-.75-.69s.27-.74.72-.74c.5,0,.63.39.63.64,0,.05,0,.09,0,.12h-1.08Zm.82-.18c0-.16-.07-.4-.39-.4-.28,0-.41.23-.43.4h.81Z"/>
    <path class="cls-38" d="m685.93,26.32l-.02-.17h0c-.09.11-.25.2-.47.2-.31,0-.47-.2-.47-.39,0-.33.33-.51.92-.51v-.03c0-.11-.03-.32-.35-.32-.14,0-.29.04-.4.1l-.06-.16c.13-.07.31-.12.5-.12.47,0,.58.29.58.56v.51c0,.12,0,.23.03.33h-.25Zm-.04-.7c-.3,0-.65.04-.65.31,0,.16.12.24.26.24.2,0,.33-.11.37-.23,0-.03.02-.05.02-.08v-.24Z"/>
    <path class="cls-26" d="m686.6,24.31h.28v2.01h-.28v-2.01Z"/>
    <path class="cls-16" d="m687.69,24.56v.39h.4v.19h-.4v.74c0,.17.05.27.21.27.07,0,.13,0,.16-.02v.19s-.13.03-.24.03c-.13,0-.23-.04-.3-.1-.08-.07-.11-.2-.11-.36v-.75h-.24v-.19h.24v-.33l.27-.07Z"/>
    <path class="cls-12" d="m688.4,24.31h.28v.86h0c.04-.07.11-.13.2-.18.08-.04.18-.07.28-.07.21,0,.54.11.54.59v.82h-.28v-.79c0-.22-.09-.41-.36-.41-.18,0-.32.11-.37.25-.02.03-.02.07-.02.12v.83h-.28v-2.01Z"/>
    <path class="cls-39" d="m689.98,26.67c.07-.17.15-.47.19-.68l.31-.03c-.07.24-.21.55-.3.69l-.2.02Z"/>
    <path class="cls-40" d="m693.32,25.35c0,.66-.45,1.01-.99,1.01s-.96-.39-.96-.97.42-1,.99-1,.96.4.96.97Zm-1.66.03c0,.41.25.77.68.77s.68-.36.68-.79c0-.38-.22-.78-.68-.78s-.68.38-.68.8Z"/>
    <path class="cls-6" d="m694.96,25.95c0,.14,0,.27.01.37h-.25l-.02-.22h0c-.07.11-.24.26-.51.26-.24,0-.53-.12-.53-.6v-.8h.28v.76c0,.26.09.44.34.44.19,0,.32-.12.37-.23.02-.04.02-.08.02-.13v-.84h.28v1Z"/>
    <path class="cls-3" d="m695.43,25.38c0-.16,0-.3-.01-.43h.24v.27h.02c.07-.18.24-.3.42-.3.03,0,.05,0,.08,0v.24s-.06,0-.1,0c-.2,0-.34.13-.37.32,0,.03-.01.07-.01.12v.73h-.28v-.94Z"/>
    <path class="cls-18" d="m697.15,24.43c.13-.02.31-.04.53-.04.27,0,.47.06.6.16.12.09.19.23.19.4s-.06.31-.16.41c-.15.14-.38.21-.65.21-.08,0-.16,0-.22-.02v.77h-.28v-1.89Zm.28.92c.06.01.14.02.23.02.33,0,.54-.14.54-.41s-.2-.38-.5-.38c-.12,0-.21,0-.26.02v.74Z"/>
    <path class="cls-2" d="m698.77,25.38c0-.16,0-.3-.01-.43h.24v.27h.02c.07-.18.24-.3.42-.3.03,0,.05,0,.08,0v.24s-.06,0-.1,0c-.2,0-.34.13-.37.32,0,.03-.01.07-.01.12v.73h-.28v-.94Z"/>
    <path class="cls-4" d="m700.13,24.56c0,.08-.07.15-.18.15-.1,0-.17-.07-.17-.15,0-.09.07-.16.17-.16s.17.07.17.16Zm-.31,1.76v-1.37h.28v1.37h-.28Z"/>
    <path class="cls-36" d="m701.95,25.62c0,.51-.39.73-.76.73-.41,0-.74-.27-.74-.71,0-.46.34-.73.76-.73s.74.29.74.7Zm-1.22.02c0,.3.19.53.47.53s.47-.22.47-.53c0-.23-.13-.53-.46-.53s-.47.27-.47.53Z"/>
    <path class="cls-8" d="m702.3,25.38c0-.16,0-.3-.01-.43h.24v.27h.02c.07-.18.24-.3.42-.3.03,0,.05,0,.08,0v.24s-.06,0-.1,0c-.2,0-.34.13-.37.32,0,.03-.01.07-.01.12v.73h-.28v-.94Z"/>
    <path class="cls-20" d="m703.66,24.56c0,.08-.07.15-.18.15-.1,0-.17-.07-.17-.15,0-.09.07-.16.17-.16s.17.07.17.16Zm-.31,1.76v-1.37h.28v1.37h-.28Z"/>
    <path class="cls-27" d="m704.43,24.56v.39h.4v.19h-.4v.74c0,.17.05.27.21.27.07,0,.13,0,.16-.02v.19s-.13.03-.24.03c-.13,0-.23-.04-.3-.1-.08-.07-.11-.2-.11-.36v-.75h-.24v-.19h.24v-.33l.27-.07Z"/>
    <path class="cls-35" d="m705.27,24.95l.34.81c.03.09.07.2.1.28h0c.03-.08.06-.19.1-.29l.3-.81h.3l-.42.98c-.2.47-.34.71-.53.86-.14.11-.27.15-.34.16l-.07-.21c.07-.02.16-.06.24-.12.08-.05.17-.15.24-.28.01-.02.02-.04.02-.06,0-.01,0-.03-.02-.07l-.57-1.26h.3Z"/>
  </g>
  <path class="cls-25" d="m698.66,16.34l-.71,3.82c-.05.21-.14.36-.27.45s-.29.15-.49.15h-12.37v-.27l1.23-1.33,1.93-2.35,1.82-2.2c-.23.11-.49.15-.76.15-1.11,0-2.02-.88-2.05-2l-2.65,3.23-4.29,5.23v1.47h20.7v-6.35h-2.08Zm-14.46-13.83c.05-.2.14-.33.27-.44.12-.09.29-.15.45-.15h10.89v.27l-1.21,1.3-3.18,3.88-.71.86-.32.38-1.71,2.09c.12-.03.24-.05.36-.05,1.14,0,2.05.91,2.05,2.05,0,.14-.02.26-.05.38l2.84-3.44,6.78-8.25V0h-19.23v5.9h2.08l.7-3.38Zm4.84,11.36c.21,0,.39-.17.39-.38v-.39h.38c.21,0,.38-.17.38-.38s-.17-.38-.38-.38h-.38v-.39c0-.21-.18-.38-.39-.38s-.38.17-.38.38v.39h-.38c-.21,0-.39.17-.39.38s.18.38.39.38h.38v.39c0,.21.17.38.38.38Z"/>
  <g>
    <path class="cls-13" d="m690.19,12.72c0,.21-.17.38-.38.38h-.38v.39c0,.21-.18.38-.39.38s-.38-.17-.38-.38v-.39h-.38c-.21,0-.39-.17-.39-.38s.18-.38.39-.38h.38v-.39c0-.21.17-.38.38-.38s.39.17.39.38v.39h.38c.21,0,.38.17.38.38Z"/>
    <path class="cls-14" d="m693.87,9.66c-.08-.17-.18-.32-.3-.44-.44-.42-1.06-.55-2.09-.58v-.05c0-.45,0-.85-.05-1.15,0-.02,0-.05-.02-.06-.05-.3-.14-.56-.35-.79-.24-.23-.53-.32-.85-.36-.3-.05-.7-.05-1.15-.05h-.05c-.47,0-.85,0-1.15.05-.32.05-.62.14-.85.36-.23.24-.33.53-.38.85-.03.3-.03.7-.03,1.15v.05c-1.05.03-1.67.15-2.09.58-.61.61-.61,1.58-.61,3.5,0,1.71,0,2.65.42,3.28.05.08.11.15.18.23.61.59,1.55.59,3.46.59h2.09c1.93,0,2.9,0,3.5-.59.59-.61.59-1.56.59-3.5,0-1.52,0-2.44-.29-3.06Zm-6.46-2.11c.03-.24.08-.33.15-.41.06-.06.17-.12.39-.15.26-.03.59-.03,1.08-.03s.83,0,1.08.03c.24.03.33.09.41.15.06.08.12.17.15.41.02.18.03.39.03.7v.38h-3.34c0-.5,0-.83.05-1.08Zm2.38,7.07c-.23.11-.49.15-.76.15-1.11,0-2.02-.88-2.05-2v-.05c0-1.02.73-1.83,1.68-2,.12-.03.24-.05.36-.05,1.14,0,2.05.91,2.05,2.05,0,.14-.02.26-.05.38-.12.7-.61,1.27-1.24,1.52Z"/>
    <path class="cls-15" d="m689.03,10.67c-.12,0-.24.02-.36.05l-1.68,2.05c.03,1.12.94,2,2.05,2,.27,0,.53-.05.76-.15l1.24-1.52c.03-.12.05-.24.05-.38,0-1.14-.91-2.05-2.05-2.05Zm.77,2.43h-.38v.39c0,.21-.18.38-.39.38s-.38-.17-.38-.38v-.39h-.38c-.21,0-.39-.17-.39-.38s.18-.38.39-.38h.38v-.39c0-.21.17-.38.38-.38s.39.17.39.38v.39h.38c.21,0,.38.17.38.38s-.17.38-.38.38Z"/>
  </g>
  <g>
    <path class="cls-30" d="m645.4,40.76v-.44l3.88-5.28.32-.39v-.08h-2.9s-.09.01-.12.04c-.03.03-.06.07-.07.13l-.19,1.01h-.55v-1.76h5.12v.42l-3.89,5.29-.33.4v.08h3.3c.05,0,.09-.01.13-.04.04-.03.06-.07.07-.14l.19-1.14h.55v1.89h-5.51Z"/>
    <path class="cls-5" d="m651.86,40.76v-.35l.73-.23c.05-.02.1-.04.13-.08.03-.04.05-.09.05-.16v-5.13c0-.07-.02-.12-.05-.15s-.08-.06-.13-.08l-.73-.24v-.34h5.25v1.68h-.56l-.18-.93c-.01-.06-.04-.1-.07-.13-.03-.03-.08-.04-.13-.04h-2.41v2.38h1.45c.06,0,.11-.01.14-.04s.05-.07.06-.13l.17-.74h.45v2.41h-.45l-.17-.74c-.01-.06-.03-.11-.06-.13s-.08-.05-.14-.05h-1.45v2.66h2.78s.09-.02.12-.05c.04-.03.06-.08.07-.13l.19-1.04h.55v1.79h-5.61Z"/>
    <path class="cls-33" d="m661.92,40.92c-.57,0-1.06-.09-1.44-.29-.38-.19-.68-.44-.87-.74-.19-.3-.29-.62-.29-.96v-4.12c0-.07-.02-.12-.05-.15-.04-.03-.08-.06-.14-.08l-.72-.24v-.34h2.8v.34l-.72.24c-.05.02-.09.04-.13.08s-.05.09-.05.15v3.64c0,.17.02.36.06.57s.12.4.25.59c.12.19.29.34.52.46.23.12.53.18.89.18s.67-.06.91-.18c.24-.12.42-.27.56-.46.14-.19.23-.38.29-.58s.08-.38.08-.55v-3.63c0-.07-.02-.11-.05-.15-.04-.03-.08-.05-.12-.07l-.72-.27v-.34h2.43v.34l-.72.27c-.05.02-.09.04-.13.08-.04.03-.05.08-.05.14v3.89c0,.4-.09.73-.26,1.01s-.39.51-.66.68c-.27.17-.55.3-.85.38s-.58.12-.83.12Z"/>
    <path class="cls-34" d="m666.43,40.49l-.03-1.81h.56l.2.98s.04.09.09.13c.05.04.09.08.12.1.12.08.25.15.39.22.14.07.29.13.45.17.16.04.32.06.49.06.49,0,.88-.11,1.15-.32.28-.21.42-.51.42-.88,0-.28-.08-.51-.25-.69s-.39-.33-.67-.45c-.27-.11-.54-.21-.8-.29-.26-.08-.52-.17-.77-.28-.38-.16-.68-.38-.9-.66-.22-.29-.33-.63-.33-1.04,0-.36.1-.69.3-.97s.48-.51.82-.68c.35-.16.73-.25,1.16-.25.26,0,.5.02.74.05.24.03.46.07.67.12.21.05.41.09.61.14v1.73h-.55l-.19-.92s-.04-.09-.08-.13c-.05-.04-.09-.08-.13-.1-.07-.05-.16-.1-.27-.15-.11-.05-.22-.08-.35-.11s-.27-.04-.41-.04c-.45,0-.79.09-1.04.28-.25.19-.37.42-.37.69,0,.24.07.47.2.69.13.21.39.39.77.53.25.09.5.18.74.26.24.08.51.18.79.3.21.09.41.2.61.34.19.14.35.32.48.54s.19.5.19.83-.09.67-.27.98-.46.56-.85.76c-.39.19-.89.29-1.52.29-.22,0-.45-.02-.69-.07-.24-.04-.49-.1-.74-.16s-.5-.13-.74-.2Z"/>
  </g>
  <g>
    <path class="cls-19" d="m678.32,40.76v-.35l.73-.23c.05-.02.09-.04.13-.08.04-.04.05-.09.05-.16v-5.13c0-.07-.02-.12-.05-.15-.03-.03-.08-.06-.13-.08l-.73-.24v-.34h2.73c.46,0,.89.06,1.26.19s.68.32.9.59c.23.27.34.62.34,1.05,0,.46-.1.85-.29,1.18-.2.33-.47.59-.81.77-.34.18-.74.27-1.18.27-.16,0-.35-.04-.57-.11-.22-.07-.39-.16-.53-.25v-.35c.11.03.25.05.44.07.19.02.36.02.53.02.3,0,.54-.05.71-.16.18-.11.31-.24.4-.39.09-.16.15-.31.18-.46s.04-.27.04-.36c0-.27-.05-.51-.14-.74-.09-.23-.26-.41-.49-.55-.24-.14-.57-.21-1.01-.21h-.63v5.38c0,.07.02.12.05.16.04.04.08.06.13.08l.77.23v.35h-2.85Z"/>
    <path class="cls-11" d="m684.51,40.76v-.35l.73-.23c.05-.02.1-.04.13-.08.03-.04.05-.09.05-.16v-5.13c0-.07-.02-.12-.05-.15s-.08-.06-.13-.08l-.73-.24v-.34h2.8v.34l-.72.24c-.05.02-.09.04-.13.08-.04.04-.05.09-.05.15v2.15h3.33v-2.15c0-.07-.02-.12-.05-.15-.03-.03-.08-.06-.14-.08l-.72-.24v-.34h2.8v.34l-.72.24c-.06.02-.1.05-.14.08-.04.03-.05.08-.05.15v5.13c0,.07.02.12.06.16.04.04.08.06.13.08l.72.23v.35h-2.8v-.35l.72-.23c.06-.02.1-.05.14-.08s.05-.09.05-.16v-2.4h-3.33v2.4c0,.07.02.12.05.16.03.03.08.06.13.08l.72.23v.35h-2.8Z"/>
    <path class="cls-31" d="m692.11,40.76v-.35l.48-.21c.12-.05.2-.14.24-.26l1.92-4.91.56-1.13h.53l2.38,6.06c.02.05.05.1.09.15.04.05.08.09.13.11l.5.2v.35h-2.5v-.35l.79-.27-1.69-4.33-.18-.64h-.08l-1.86,4.94.8.3v.35h-2.12Zm1.89-2.37l.23-.66h2.18l.23.66h-2.64Z"/>
    <path class="cls-23" d="m699.46,40.76v-.35l.73-.23c.05-.02.1-.04.13-.08.03-.04.05-.09.05-.16v-5.13c0-.07-.02-.12-.05-.15s-.08-.06-.13-.08l-.73-.24v-.34h2.76c.52,0,.94.05,1.26.15s.58.24.75.4c.18.17.3.35.37.55s.1.4.1.61c0,.37-.08.68-.24.95-.16.26-.37.47-.61.62-.24.15-.48.26-.72.31l-.76.31-1.08-.22.04-.5s.1.02.2.03c.11.01.22.02.34.03s.22,0,.29,0c.34,0,.62-.06.84-.19s.38-.29.49-.49.16-.42.16-.65c0-.47-.14-.81-.41-1.03-.27-.21-.67-.32-1.19-.32h-.7v5.38c0,.07.02.12.05.16.04.04.08.06.13.08l.75.23v.35h-2.82Zm6.58,0h-1.14c-.21,0-.37-.02-.47-.05-.1-.04-.19-.1-.26-.19-.07-.09-.17-.21-.28-.37l-1.69-2.34.96-.3,1.78,2.36c.03.05.09.11.17.18.08.07.15.12.22.13l.73.21v.35Z"/>
    <path class="cls-10" d="m706.49,40.76v-.35l.73-.27c.05-.01.09-.04.13-.08.04-.04.05-.09.05-.15v-5.1c0-.07-.02-.12-.05-.15-.03-.03-.08-.06-.13-.08l-.73-.24v-.34h2.43l1.58,4.47.24.82h.08l1.83-5.29h2.4v.34l-.72.24c-.05.02-.09.04-.13.08-.04.04-.06.09-.06.15v5.13c0,.07.02.12.05.16.04.03.08.06.14.08l.72.23v.35h-2.79v-.35l.72-.23c.05-.02.1-.04.13-.08.04-.04.05-.09.05-.16v-5.43h-.09l-.22.7-1.61,4.51-.45,1.05h-.48l-1.97-5.55-.22-.7h-.08v5.4c0,.07.02.12.05.15.03.03.08.06.13.08l.71.27v.35h-2.44Z"/>
    <path class="cls-7" d="m715.55,40.76v-.35l.48-.21c.12-.05.2-.14.24-.26l1.92-4.91.56-1.13h.53l2.38,6.06c.02.05.05.1.09.15.04.05.08.09.13.11l.5.2v.35h-2.5v-.35l.79-.27-1.69-4.33-.18-.64h-.08l-1.86,4.94.8.3v.35h-2.12Zm1.89-2.37l.23-.66h2.18l.23.66h-2.64Z"/>
    <path class="cls-17" d="m728.38,39.25h.24v.63c-.18.15-.4.31-.66.46s-.53.29-.84.4c-.31.11-.63.16-.96.16-.67,0-1.26-.14-1.76-.41-.5-.28-.89-.68-1.17-1.2s-.41-1.16-.41-1.9.15-1.34.44-1.87c.29-.53.69-.94,1.2-1.23.51-.29,1.08-.44,1.73-.44.23,0,.49.02.77.06.28.04.56.09.83.14.27.05.49.1.68.15v1.73h-.55l-.18-.97c-.01-.05-.04-.09-.09-.13-.05-.03-.1-.06-.15-.09-.2-.1-.41-.18-.64-.23s-.48-.08-.75-.08c-.64,0-1.17.23-1.58.68s-.61,1.15-.61,2.08c0,.98.22,1.73.65,2.23s1.06.75,1.88.75c.27,0,.52-.04.74-.13.22-.08.42-.2.61-.33.19-.14.39-.29.58-.45Z"/>
    <path class="cls-32" d="m730.9,40.76v-.35l.77-.23c.06-.02.1-.04.13-.08.03-.04.05-.09.05-.16v-1.72l-1.92-3.43s-.06-.09-.1-.14c-.04-.05-.09-.08-.14-.1l-.52-.21v-.34h2.5v.34l-.78.28,1.36,2.34.26.58h.08l1.6-2.89-.77-.31v-.34h2.12v.34l-.5.22c-.05.02-.1.06-.14.1-.04.05-.08.09-.1.14l-1.95,3.39v1.74c0,.07.02.12.05.16.03.04.07.06.12.08l.78.23v.35h-2.91Z"/>
  </g>
</svg>